# xmcd
#
# Track frame offsets:
#	200
#	24570
#	48875
#	72537
#	89985
#	111710
#	134795
#	158237
#	182265
#	203457
#	223760
#	240330
#
# Disc length: 3502 seconds
#
# Revision: 2
# Processed by: cddbd v1.4b41PL3 Copyright (c) Steve Scherf et al.
# Submitted via: EZCDDA 4.3.2
#
DISCID=b20dac0c
DTITLE=Whispers - In the mood
DYEAR=1900
DGENRE=
TTITLE0=Give it to me
TTITLE1=Love is where you find it
TTITLE2=Say yes
TTITLE3=Try it again
TTITLE4=In the mood
TTITLE5=Lady
TTITLE6=Are you going my way
TTITLE7=Do they turn you on
TTITLE8=Welcome into my dreams
TTITLE9=A song for Donny
TTITLE10=Chocolate girl
TTITLE11=I'm gonna make you my wife
EXTD=
EXTT0=
EXTT1=
EXTT2=
EXTT3=
EXTT4=
EXTT5=
EXTT6=
EXTT7=
EXTT8=
EXTT9=
EXTT10=
EXTT11=
PLAYORDER=
